<svg width="372" height="372" viewBox="0 0 372 372" fill="none" xmlns="http://www.w3.org/2000/svg">
<path d="M243.898 34.5067C243.898 34.5067 189.251 18.4215 135.274 50.964C81.2969 83.5066 53.8135 144.21 30.2064 192.904C6.59929 241.599 19.6863 289.312 60.5765 309.348C101.467 329.384 129.597 295.502 187.183 291.09C244.769 286.678 260.199 293.85 308.18 260.14C356.16 226.429 365.304 151.917 327.963 98.952C290.621 45.9867 243.898 34.5067 243.898 34.5067Z" fill="#FFE4C2"/>
<path d="M34.187 299.609H342.181" stroke="#1A1A1A" stroke-width="0.939394" stroke-linecap="round" stroke-linejoin="round"/>
<path d="M34.187 306.669H342.181" stroke="#1A1A1A" stroke-width="0.939394" stroke-linecap="round" stroke-linejoin="round"/>
<path d="M56.1498 181.246H38.4873C36.7903 181.246 35.4146 182.622 35.4146 184.319V201.981C35.4146 203.678 36.7903 205.054 38.4873 205.054H56.1498C57.8468 205.054 59.2226 203.678 59.2226 201.981V184.319C59.2226 182.622 57.8468 181.246 56.1498 181.246Z" stroke="#1A1A1A" stroke-width="0.939394" stroke-linecap="round" stroke-linejoin="round"/>
<path d="M81.9741 181.246H64.3115C62.6145 181.246 61.2388 182.622 61.2388 184.319V201.981C61.2388 203.678 62.6145 205.054 64.3115 205.054H81.9741C83.6711 205.054 85.0468 203.678 85.0468 201.981V184.319C85.0468 182.622 83.6711 181.246 81.9741 181.246Z" stroke="#1A1A1A" stroke-width="0.939394" stroke-linecap="round" stroke-linejoin="round"/>
<path d="M107.799 181.246H90.1362C88.4392 181.246 87.0635 182.622 87.0635 184.319V201.981C87.0635 203.678 88.4392 205.054 90.1362 205.054H107.799C109.496 205.054 110.871 203.678 110.871 201.981V184.319C110.871 182.622 109.496 181.246 107.799 181.246Z" stroke="#1A1A1A" stroke-width="0.939394" stroke-linecap="round" stroke-linejoin="round"/>
<path d="M133.615 181.246H115.953C114.256 181.246 112.88 182.622 112.88 184.319V201.981C112.88 203.678 114.256 205.054 115.953 205.054H133.615C135.312 205.054 136.688 203.678 136.688 201.981V184.319C136.688 182.622 135.312 181.246 133.615 181.246Z" stroke="#1A1A1A" stroke-width="0.939394" stroke-linecap="round" stroke-linejoin="round"/>
<path d="M159.439 181.246H141.777C140.08 181.246 138.704 182.622 138.704 184.319V201.981C138.704 203.678 140.08 205.054 141.777 205.054H159.439C161.136 205.054 162.512 203.678 162.512 201.981V184.319C162.512 182.622 161.136 181.246 159.439 181.246Z" stroke="#1A1A1A" stroke-width="0.939394" stroke-linecap="round" stroke-linejoin="round"/>
<path d="M185.264 181.246H167.601C165.904 181.246 164.528 182.622 164.528 184.319V201.981C164.528 203.678 165.904 205.054 167.601 205.054H185.264C186.961 205.054 188.336 203.678 188.336 201.981V184.319C188.336 182.622 186.961 181.246 185.264 181.246Z" stroke="#1A1A1A" stroke-width="0.939394" stroke-linecap="round" stroke-linejoin="round"/>
<path d="M211.08 181.246H193.418C191.721 181.246 190.345 182.622 190.345 184.319V201.981C190.345 203.678 191.721 205.054 193.418 205.054H211.08C212.778 205.054 214.153 203.678 214.153 201.981V184.319C214.153 182.622 212.778 181.246 211.08 181.246Z" stroke="#1A1A1A" stroke-width="0.939394" stroke-linecap="round" stroke-linejoin="round"/>
<path d="M236.905 181.246H219.242C217.545 181.246 216.169 182.622 216.169 184.319V201.981C216.169 203.678 217.545 205.054 219.242 205.054H236.905C238.602 205.054 239.977 203.678 239.977 201.981V184.319C239.977 182.622 238.602 181.246 236.905 181.246Z" stroke="#1A1A1A" stroke-width="0.939394" stroke-linecap="round" stroke-linejoin="round"/>
<path d="M262.729 181.246H245.066C243.369 181.246 241.994 182.622 241.994 184.319V201.981C241.994 203.678 243.369 205.054 245.066 205.054H262.729C264.426 205.054 265.802 203.678 265.802 201.981V184.319C265.802 182.622 264.426 181.246 262.729 181.246Z" stroke="#1A1A1A" stroke-width="0.939394" stroke-linecap="round" stroke-linejoin="round"/>
<path d="M288.546 181.246H270.883C269.186 181.246 267.811 182.622 267.811 184.319V201.981C267.811 203.678 269.186 205.054 270.883 205.054H288.546C290.243 205.054 291.619 203.678 291.619 201.981V184.319C291.619 182.622 290.243 181.246 288.546 181.246Z" stroke="#1A1A1A" stroke-width="0.939394" stroke-linecap="round" stroke-linejoin="round"/>
<path d="M314.37 181.246H296.707C295.01 181.246 293.635 182.622 293.635 184.319V201.981C293.635 203.678 295.01 205.054 296.707 205.054H314.37C316.067 205.054 317.443 203.678 317.443 201.981V184.319C317.443 182.622 316.067 181.246 314.37 181.246Z" stroke="#1A1A1A" stroke-width="0.939394" stroke-linecap="round" stroke-linejoin="round"/>
<path d="M340.194 181.246H322.532C320.835 181.246 319.459 182.622 319.459 184.319V201.981C319.459 203.678 320.835 205.054 322.532 205.054H340.194C341.891 205.054 343.267 203.678 343.267 201.981V184.319C343.267 182.622 341.891 181.246 340.194 181.246Z" stroke="#1A1A1A" stroke-width="0.939394" stroke-linecap="round" stroke-linejoin="round"/>
<path d="M56.1498 206.691H38.4873C36.7903 206.691 35.4146 208.066 35.4146 209.763V227.426C35.4146 229.123 36.7903 230.499 38.4873 230.499H56.1498C57.8468 230.499 59.2226 229.123 59.2226 227.426V209.763C59.2226 208.066 57.8468 206.691 56.1498 206.691Z" stroke="#1A1A1A" stroke-width="0.939394" stroke-linecap="round" stroke-linejoin="round"/>
<path d="M81.9741 206.691H64.3115C62.6145 206.691 61.2388 208.066 61.2388 209.763V227.426C61.2388 229.123 62.6145 230.499 64.3115 230.499H81.9741C83.6711 230.499 85.0468 229.123 85.0468 227.426V209.763C85.0468 208.066 83.6711 206.691 81.9741 206.691Z" stroke="#1A1A1A" stroke-width="0.939394" stroke-linecap="round" stroke-linejoin="round"/>
<path d="M107.799 206.691H90.1362C88.4392 206.691 87.0635 208.066 87.0635 209.763V227.426C87.0635 229.123 88.4392 230.499 90.1362 230.499H107.799C109.496 230.499 110.871 229.123 110.871 227.426V209.763C110.871 208.066 109.496 206.691 107.799 206.691Z" stroke="#1A1A1A" stroke-width="0.939394" stroke-linecap="round" stroke-linejoin="round"/>
<path d="M133.615 206.691H115.953C114.256 206.691 112.88 208.066 112.88 209.763V227.426C112.88 229.123 114.256 230.499 115.953 230.499H133.615C135.312 230.499 136.688 229.123 136.688 227.426V209.763C136.688 208.066 135.312 206.691 133.615 206.691Z" stroke="#1A1A1A" stroke-width="0.939394" stroke-linecap="round" stroke-linejoin="round"/>
<path d="M159.439 206.691H141.777C140.08 206.691 138.704 208.066 138.704 209.763V227.426C138.704 229.123 140.08 230.499 141.777 230.499H159.439C161.136 230.499 162.512 229.123 162.512 227.426V209.763C162.512 208.066 161.136 206.691 159.439 206.691Z" stroke="#1A1A1A" stroke-width="0.939394" stroke-linecap="round" stroke-linejoin="round"/>
<path d="M185.264 206.691H167.601C165.904 206.691 164.528 208.066 164.528 209.763V227.426C164.528 229.123 165.904 230.499 167.601 230.499H185.264C186.961 230.499 188.336 229.123 188.336 227.426V209.763C188.336 208.066 186.961 206.691 185.264 206.691Z" stroke="#1A1A1A" stroke-width="0.939394" stroke-linecap="round" stroke-linejoin="round"/>
<path d="M211.08 206.691H193.418C191.721 206.691 190.345 208.066 190.345 209.763V227.426C190.345 229.123 191.721 230.499 193.418 230.499H211.08C212.778 230.499 214.153 229.123 214.153 227.426V209.763C214.153 208.066 212.778 206.691 211.08 206.691Z" stroke="#1A1A1A" stroke-width="0.939394" stroke-linecap="round" stroke-linejoin="round"/>
<path d="M236.905 206.691H219.242C217.545 206.691 216.169 208.066 216.169 209.763V227.426C216.169 229.123 217.545 230.499 219.242 230.499H236.905C238.602 230.499 239.977 229.123 239.977 227.426V209.763C239.977 208.066 238.602 206.691 236.905 206.691Z" stroke="#1A1A1A" stroke-width="0.939394" stroke-linecap="round" stroke-linejoin="round"/>
<path d="M262.729 206.691H245.066C243.369 206.691 241.994 208.066 241.994 209.763V227.426C241.994 229.123 243.369 230.499 245.066 230.499H262.729C264.426 230.499 265.802 229.123 265.802 227.426V209.763C265.802 208.066 264.426 206.691 262.729 206.691Z" stroke="#1A1A1A" stroke-width="0.939394" stroke-linecap="round" stroke-linejoin="round"/>
<path d="M288.546 206.691H270.883C269.186 206.691 267.811 208.066 267.811 209.763V227.426C267.811 229.123 269.186 230.499 270.883 230.499H288.546C290.243 230.499 291.619 229.123 291.619 227.426V209.763C291.619 208.066 290.243 206.691 288.546 206.691Z" stroke="#1A1A1A" stroke-width="0.939394" stroke-linecap="round" stroke-linejoin="round"/>
<path d="M314.37 206.691H296.707C295.01 206.691 293.635 208.066 293.635 209.763V227.426C293.635 229.123 295.01 230.499 296.707 230.499H314.37C316.067 230.499 317.443 229.123 317.443 227.426V209.763C317.443 208.066 316.067 206.691 314.37 206.691Z" stroke="#1A1A1A" stroke-width="0.939394" stroke-linecap="round" stroke-linejoin="round"/>
<path d="M340.194 206.691H322.532C320.835 206.691 319.459 208.066 319.459 209.763V227.426C319.459 229.123 320.835 230.499 322.532 230.499H340.194C341.891 230.499 343.267 229.123 343.267 227.426V209.763C343.267 208.066 341.891 206.691 340.194 206.691Z" stroke="#1A1A1A" stroke-width="0.939394" stroke-linecap="round" stroke-linejoin="round"/>
<path d="M56.1498 232.135H38.4873C36.7903 232.135 35.4146 233.511 35.4146 235.208V252.871C35.4146 254.568 36.7903 255.943 38.4873 255.943H56.1498C57.8468 255.943 59.2226 254.568 59.2226 252.871V235.208C59.2226 233.511 57.8468 232.135 56.1498 232.135Z" stroke="#1A1A1A" stroke-width="0.939394" stroke-linecap="round" stroke-linejoin="round"/>
<path d="M81.9741 232.135H64.3115C62.6145 232.135 61.2388 233.511 61.2388 235.208V252.871C61.2388 254.568 62.6145 255.943 64.3115 255.943H81.9741C83.6711 255.943 85.0468 254.568 85.0468 252.871V235.208C85.0468 233.511 83.6711 232.135 81.9741 232.135Z" stroke="#1A1A1A" stroke-width="0.939394" stroke-linecap="round" stroke-linejoin="round"/>
<path d="M107.799 232.135H90.1362C88.4392 232.135 87.0635 233.511 87.0635 235.208V252.871C87.0635 254.568 88.4392 255.943 90.1362 255.943H107.799C109.496 255.943 110.871 254.568 110.871 252.871V235.208C110.871 233.511 109.496 232.135 107.799 232.135Z" stroke="#1A1A1A" stroke-width="0.939394" stroke-linecap="round" stroke-linejoin="round"/>
<path d="M133.615 232.135H115.953C114.256 232.135 112.88 233.511 112.88 235.208V252.871C112.88 254.568 114.256 255.943 115.953 255.943H133.615C135.312 255.943 136.688 254.568 136.688 252.871V235.208C136.688 233.511 135.312 232.135 133.615 232.135Z" stroke="#1A1A1A" stroke-width="0.939394" stroke-linecap="round" stroke-linejoin="round"/>
<path d="M159.439 232.135H141.777C140.08 232.135 138.704 233.511 138.704 235.208V252.871C138.704 254.568 140.08 255.943 141.777 255.943H159.439C161.136 255.943 162.512 254.568 162.512 252.871V235.208C162.512 233.511 161.136 232.135 159.439 232.135Z" stroke="#1A1A1A" stroke-width="0.939394" stroke-linecap="round" stroke-linejoin="round"/>
<path d="M185.264 232.135H167.601C165.904 232.135 164.528 233.511 164.528 235.208V252.871C164.528 254.568 165.904 255.943 167.601 255.943H185.264C186.961 255.943 188.336 254.568 188.336 252.871V235.208C188.336 233.511 186.961 232.135 185.264 232.135Z" stroke="#1A1A1A" stroke-width="0.939394" stroke-linecap="round" stroke-linejoin="round"/>
<path d="M211.08 232.135H193.418C191.721 232.135 190.345 233.511 190.345 235.208V252.871C190.345 254.568 191.721 255.943 193.418 255.943H211.08C212.778 255.943 214.153 254.568 214.153 252.871V235.208C214.153 233.511 212.778 232.135 211.08 232.135Z" stroke="#1A1A1A" stroke-width="0.939394" stroke-linecap="round" stroke-linejoin="round"/>
<path d="M236.905 232.135H219.242C217.545 232.135 216.169 233.511 216.169 235.208V252.871C216.169 254.568 217.545 255.943 219.242 255.943H236.905C238.602 255.943 239.977 254.568 239.977 252.871V235.208C239.977 233.511 238.602 232.135 236.905 232.135Z" stroke="#1A1A1A" stroke-width="0.939394" stroke-linecap="round" stroke-linejoin="round"/>
<path d="M262.729 232.135H245.066C243.369 232.135 241.994 233.511 241.994 235.208V252.871C241.994 254.568 243.369 255.943 245.066 255.943H262.729C264.426 255.943 265.802 254.568 265.802 252.871V235.208C265.802 233.511 264.426 232.135 262.729 232.135Z" stroke="#1A1A1A" stroke-width="0.939394" stroke-linecap="round" stroke-linejoin="round"/>
<path d="M288.546 232.135H270.883C269.186 232.135 267.811 233.511 267.811 235.208V252.871C267.811 254.568 269.186 255.943 270.883 255.943H288.546C290.243 255.943 291.619 254.568 291.619 252.871V235.208C291.619 233.511 290.243 232.135 288.546 232.135Z" stroke="#1A1A1A" stroke-width="0.939394" stroke-linecap="round" stroke-linejoin="round"/>
<path d="M314.37 232.135H296.707C295.01 232.135 293.635 233.511 293.635 235.208V252.871C293.635 254.568 295.01 255.943 296.707 255.943H314.37C316.067 255.943 317.443 254.568 317.443 252.871V235.208C317.443 233.511 316.067 232.135 314.37 232.135Z" stroke="#1A1A1A" stroke-width="0.939394" stroke-linecap="round" stroke-linejoin="round"/>
<path d="M340.194 232.135H322.532C320.835 232.135 319.459 233.511 319.459 235.208V252.871C319.459 254.568 320.835 255.943 322.532 255.943H340.194C341.891 255.943 343.267 254.568 343.267 252.871V235.208C343.267 233.511 341.891 232.135 340.194 232.135Z" stroke="#1A1A1A" stroke-width="0.939394" stroke-linecap="round" stroke-linejoin="round"/>
<path d="M56.1498 257.58H38.4873C36.7903 257.58 35.4146 258.956 35.4146 260.653V278.315C35.4146 280.012 36.7903 281.388 38.4873 281.388H56.1498C57.8468 281.388 59.2226 280.012 59.2226 278.315V260.653C59.2226 258.956 57.8468 257.58 56.1498 257.58Z" stroke="#1A1A1A" stroke-width="0.939394" stroke-linecap="round" stroke-linejoin="round"/>
<path d="M81.9741 257.58H64.3115C62.6145 257.58 61.2388 258.956 61.2388 260.653V278.315C61.2388 280.012 62.6145 281.388 64.3115 281.388H81.9741C83.6711 281.388 85.0468 280.012 85.0468 278.315V260.653C85.0468 258.956 83.6711 257.58 81.9741 257.58Z" stroke="#1A1A1A" stroke-width="0.939394" stroke-linecap="round" stroke-linejoin="round"/>
<path d="M107.799 257.58H90.1362C88.4392 257.58 87.0635 258.956 87.0635 260.653V278.315C87.0635 280.012 88.4392 281.388 90.1362 281.388H107.799C109.496 281.388 110.871 280.012 110.871 278.315V260.653C110.871 258.956 109.496 257.58 107.799 257.58Z" stroke="#1A1A1A" stroke-width="0.939394" stroke-linecap="round" stroke-linejoin="round"/>
<path d="M133.615 257.58H115.953C114.256 257.58 112.88 258.956 112.88 260.653V278.315C112.88 280.012 114.256 281.388 115.953 281.388H133.615C135.312 281.388 136.688 280.012 136.688 278.315V260.653C136.688 258.956 135.312 257.58 133.615 257.58Z" stroke="#1A1A1A" stroke-width="0.939394" stroke-linecap="round" stroke-linejoin="round"/>
<path d="M159.439 257.58H141.777C140.08 257.58 138.704 258.956 138.704 260.653V278.315C138.704 280.012 140.08 281.388 141.777 281.388H159.439C161.136 281.388 162.512 280.012 162.512 278.315V260.653C162.512 258.956 161.136 257.58 159.439 257.58Z" stroke="#1A1A1A" stroke-width="0.939394" stroke-linecap="round" stroke-linejoin="round"/>
<path d="M185.264 257.58H167.601C165.904 257.58 164.528 258.956 164.528 260.653V278.315C164.528 280.012 165.904 281.388 167.601 281.388H185.264C186.961 281.388 188.336 280.012 188.336 278.315V260.653C188.336 258.956 186.961 257.58 185.264 257.58Z" stroke="#1A1A1A" stroke-width="0.939394" stroke-linecap="round" stroke-linejoin="round"/>
<path d="M211.08 257.58H193.418C191.721 257.58 190.345 258.956 190.345 260.653V278.315C190.345 280.012 191.721 281.388 193.418 281.388H211.08C212.778 281.388 214.153 280.012 214.153 278.315V260.653C214.153 258.956 212.778 257.58 211.08 257.58Z" stroke="#1A1A1A" stroke-width="0.939394" stroke-linecap="round" stroke-linejoin="round"/>
<path d="M236.905 257.58H219.242C217.545 257.58 216.169 258.956 216.169 260.653V278.315C216.169 280.012 217.545 281.388 219.242 281.388H236.905C238.602 281.388 239.977 280.012 239.977 278.315V260.653C239.977 258.956 238.602 257.58 236.905 257.58Z" stroke="#1A1A1A" stroke-width="0.939394" stroke-linecap="round" stroke-linejoin="round"/>
<path d="M262.729 257.58H245.066C243.369 257.58 241.994 258.956 241.994 260.653V278.315C241.994 280.012 243.369 281.388 245.066 281.388H262.729C264.426 281.388 265.802 280.012 265.802 278.315V260.653C265.802 258.956 264.426 257.58 262.729 257.58Z" stroke="#1A1A1A" stroke-width="0.939394" stroke-linecap="round" stroke-linejoin="round"/>
<path d="M288.546 257.58H270.883C269.186 257.58 267.811 258.956 267.811 260.653V278.315C267.811 280.012 269.186 281.388 270.883 281.388H288.546C290.243 281.388 291.619 280.012 291.619 278.315V260.653C291.619 258.956 290.243 257.58 288.546 257.58Z" stroke="#1A1A1A" stroke-width="0.939394" stroke-linecap="round" stroke-linejoin="round"/>
<path d="M314.37 257.58H296.707C295.01 257.58 293.635 258.956 293.635 260.653V278.315C293.635 280.012 295.01 281.388 296.707 281.388H314.37C316.067 281.388 317.443 280.012 317.443 278.315V260.653C317.443 258.956 316.067 257.58 314.37 257.58Z" stroke="#1A1A1A" stroke-width="0.939394" stroke-linecap="round" stroke-linejoin="round"/>
<path d="M340.194 257.58H322.532C320.835 257.58 319.459 258.956 319.459 260.653V278.315C319.459 280.012 320.835 281.388 322.532 281.388H340.194C341.891 281.388 343.267 280.012 343.267 278.315V260.653C343.267 258.956 341.891 257.58 340.194 257.58Z" stroke="#1A1A1A" stroke-width="0.939394" stroke-linecap="round" stroke-linejoin="round"/>
<path d="M88.7969 170.316V55.5099" stroke="#1A1A1A" stroke-width="0.939394" stroke-linecap="round" stroke-linejoin="round"/>
<path d="M96.4151 138.734H92.3306V162.512H96.4151V138.734Z" fill="#1A1A1A" stroke="#1A1A1A" stroke-width="0.939394" stroke-linecap="round" stroke-linejoin="round"/>
<path d="M85.2701 138.734H81.1855V162.512H85.2701V138.734Z" fill="#1A1A1A" stroke="#1A1A1A" stroke-width="0.939394" stroke-linecap="round" stroke-linejoin="round"/>
<path d="M34.187 170.316H342.181" stroke="#1A1A1A" stroke-width="1.87879" stroke-linecap="round" stroke-linejoin="round"/>
<path d="M272.334 170.316V55.5099" stroke="#1A1A1A" stroke-width="0.939394" stroke-linecap="round" stroke-linejoin="round"/>
<path d="M269.73 138.734H265.646V162.512H269.73V138.734Z" fill="#1A1A1A" stroke="#1A1A1A" stroke-width="0.939394" stroke-linecap="round" stroke-linejoin="round"/>
<path d="M279.581 138.734H275.496V162.512H279.581V138.734Z" fill="#1A1A1A" stroke="#1A1A1A" stroke-width="0.939394" stroke-linecap="round" stroke-linejoin="round"/>
<path d="M92.9551 267.49H102.099C102.906 267.49 103.68 267.811 104.251 268.382C104.821 268.952 105.142 269.726 105.142 270.533V299.237H89.9121V270.533C89.9121 269.726 90.2327 268.952 90.8034 268.382C91.374 267.811 92.148 267.49 92.9551 267.49Z" fill="white" stroke="#1A1A1A" stroke-width="0.939394" stroke-linecap="round" stroke-linejoin="round"/>
<path d="M92.9551 267.49H102.099C102.906 267.49 103.68 267.811 104.251 268.382C104.821 268.952 105.142 269.726 105.142 270.533V275.786H89.9121V270.533C89.9121 269.726 90.2327 268.952 90.8034 268.382C91.374 267.811 92.148 267.49 92.9551 267.49Z" fill="white" stroke="#1A1A1A" stroke-width="0.939394" stroke-linecap="round" stroke-linejoin="round"/>
<path d="M93.1113 276.976V296.134" stroke="#1A1A1A" stroke-width="0.939394" stroke-linecap="round" stroke-linejoin="round"/>
<path d="M97.9399 276.976V296.134" stroke="#1A1A1A" stroke-width="0.939394" stroke-linecap="round" stroke-linejoin="round"/>
<path d="M337.627 258.369H265.005C263.719 258.369 262.677 259.412 262.677 260.698V297.28C262.677 298.566 263.719 299.609 265.005 299.609H337.627C338.913 299.609 339.956 298.566 339.956 297.28V260.698C339.956 259.412 338.913 258.369 337.627 258.369Z" fill="white" stroke="#1A1A1A" stroke-width="0.939394" stroke-linecap="round" stroke-linejoin="round"/>
<path d="M336.98 260.965H321.006V269.514H336.98V260.965Z" fill="#CCCCCC" stroke="#1A1A1A" stroke-width="0.939394" stroke-linecap="round" stroke-linejoin="round"/>
<path d="M324.652 277.512C324.652 277.917 324.532 278.312 324.307 278.649C324.082 278.985 323.763 279.247 323.389 279.402C323.015 279.557 322.604 279.598 322.207 279.519C321.81 279.44 321.445 279.245 321.159 278.959C320.873 278.673 320.678 278.308 320.599 277.911C320.52 277.514 320.561 277.103 320.716 276.729C320.871 276.355 321.133 276.036 321.469 275.811C321.806 275.586 322.201 275.466 322.606 275.466C323.149 275.466 323.669 275.681 324.053 276.065C324.436 276.449 324.652 276.969 324.652 277.512Z" fill="white" stroke="#1A1A1A" stroke-width="0.939394" stroke-linecap="round" stroke-linejoin="round"/>
<path d="M329.109 279.551C330.238 279.551 331.155 278.635 331.155 277.505C331.155 276.375 330.238 275.459 329.109 275.459C327.979 275.459 327.062 276.375 327.062 277.505C327.062 278.635 327.979 279.551 329.109 279.551Z" fill="white" stroke="#1A1A1A" stroke-width="0.939394" stroke-linecap="round" stroke-linejoin="round"/>
<path d="M335.611 279.551C336.741 279.551 337.657 278.635 337.657 277.505C337.657 276.375 336.741 275.459 335.611 275.459C334.481 275.459 333.565 276.375 333.565 277.505C333.565 278.635 334.481 279.551 335.611 279.551Z" fill="white" stroke="#1A1A1A" stroke-width="0.939394" stroke-linecap="round" stroke-linejoin="round"/>
<path d="M324.652 285.302C324.654 285.707 324.535 286.103 324.311 286.44C324.087 286.778 323.768 287.041 323.394 287.197C323.02 287.353 322.609 287.395 322.211 287.317C321.814 287.239 321.449 287.044 321.162 286.758C320.875 286.473 320.679 286.108 320.6 285.711C320.52 285.314 320.56 284.902 320.715 284.528C320.87 284.154 321.132 283.834 321.469 283.608C321.805 283.383 322.201 283.263 322.606 283.263C323.147 283.263 323.667 283.478 324.05 283.86C324.434 284.242 324.65 284.76 324.652 285.302Z" fill="white" stroke="#1A1A1A" stroke-width="0.939394" stroke-linecap="round" stroke-linejoin="round"/>
<path d="M331.147 285.302C331.149 285.707 331.03 286.104 330.805 286.441C330.581 286.779 330.262 287.042 329.888 287.198C329.513 287.354 329.101 287.395 328.704 287.316C328.306 287.237 327.941 287.042 327.654 286.756C327.368 286.469 327.173 286.104 327.094 285.706C327.015 285.309 327.057 284.897 327.212 284.523C327.368 284.149 327.632 283.829 327.969 283.605C328.307 283.381 328.703 283.262 329.109 283.263C329.649 283.265 330.166 283.48 330.548 283.862C330.93 284.244 331.145 284.762 331.147 285.302Z" fill="white" stroke="#1A1A1A" stroke-width="0.939394" stroke-linecap="round" stroke-linejoin="round"/>
<path d="M337.65 285.302C337.651 285.707 337.532 286.104 337.308 286.441C337.084 286.779 336.764 287.042 336.39 287.198C336.016 287.354 335.604 287.395 335.206 287.316C334.809 287.237 334.443 287.042 334.157 286.756C333.87 286.469 333.675 286.104 333.597 285.706C333.518 285.309 333.559 284.897 333.715 284.523C333.871 284.149 334.134 283.829 334.472 283.605C334.809 283.381 335.206 283.262 335.611 283.263C336.151 283.265 336.668 283.48 337.05 283.862C337.432 284.244 337.648 284.762 337.65 285.302Z" fill="white" stroke="#1A1A1A" stroke-width="0.939394" stroke-linecap="round" stroke-linejoin="round"/>
<path d="M324.652 293.136C324.652 293.541 324.532 293.936 324.307 294.273C324.082 294.609 323.763 294.871 323.389 295.026C323.015 295.181 322.604 295.222 322.207 295.143C321.81 295.064 321.445 294.869 321.159 294.583C320.873 294.297 320.678 293.932 320.599 293.535C320.52 293.138 320.561 292.727 320.716 292.353C320.871 291.979 321.133 291.66 321.469 291.435C321.806 291.21 322.201 291.09 322.606 291.09C323.149 291.09 323.669 291.306 324.053 291.689C324.436 292.073 324.652 292.593 324.652 293.136Z" fill="white" stroke="#1A1A1A" stroke-width="0.939394" stroke-linecap="round" stroke-linejoin="round"/>
<path d="M331.147 293.136C331.147 293.541 331.027 293.937 330.802 294.273C330.577 294.61 330.257 294.872 329.882 295.027C329.508 295.182 329.096 295.222 328.699 295.142C328.302 295.063 327.938 294.867 327.652 294.58C327.366 294.293 327.172 293.928 327.094 293.531C327.015 293.133 327.057 292.722 327.213 292.348C327.369 291.974 327.632 291.655 327.97 291.431C328.307 291.207 328.704 291.089 329.109 291.09C329.65 291.092 330.168 291.308 330.551 291.692C330.933 292.075 331.147 292.595 331.147 293.136Z" fill="white" stroke="#1A1A1A" stroke-width="0.939394" stroke-linecap="round" stroke-linejoin="round"/>
<path d="M337.65 293.136C337.65 293.541 337.529 293.937 337.304 294.273C337.079 294.61 336.759 294.872 336.385 295.027C336.011 295.182 335.599 295.222 335.202 295.142C334.805 295.063 334.44 294.867 334.154 294.58C333.868 294.293 333.674 293.928 333.596 293.531C333.518 293.133 333.56 292.722 333.716 292.348C333.872 291.974 334.135 291.655 334.472 291.431C334.81 291.207 335.206 291.089 335.611 291.09C336.152 291.092 336.671 291.308 337.053 291.692C337.435 292.075 337.65 292.595 337.65 293.136Z" fill="white" stroke="#1A1A1A" stroke-width="0.939394" stroke-linecap="round" stroke-linejoin="round"/>
<path d="M314.712 278.613C314.712 288.568 313.968 296.633 313.038 296.633C312.108 296.633 311.372 288.568 311.372 278.613C311.372 268.658 312.116 260.593 313.038 260.593C313.961 260.593 314.712 268.666 314.712 278.613Z" fill="#CCCCCC" stroke="#1A1A1A" stroke-width="0.939394" stroke-linecap="round" stroke-linejoin="round"/>
<path d="M304.794 262.163C303.716 262.111 302.622 262.081 301.521 262.081C282.326 262.081 266.769 269.737 266.769 279.193C266.769 288.65 282.326 296.305 301.521 296.305C302.622 296.305 303.753 296.305 304.794 296.231V262.163Z" fill="#CCCCCC" stroke="#1A1A1A" stroke-width="0.939394" stroke-linecap="round" stroke-linejoin="round"/>
<path d="M70.5978 262.453H52.7642V268.026H70.5978V262.453Z" fill="#1A1A1A" stroke="#1A1A1A" stroke-width="0.939394" stroke-linecap="round" stroke-linejoin="round"/>
<path d="M46.3883 266.538H77.3387L83.9678 291.968H39.7593L46.3883 266.538Z" fill="white" stroke="#1A1A1A" stroke-width="0.939394" stroke-linecap="round" stroke-linejoin="round"/>
<path d="M83.9678 291.774H39.7593V299.601H83.9678V291.774Z" fill="#1A1A1A" stroke="#1A1A1A" stroke-width="0.939394" stroke-linecap="round" stroke-linejoin="round"/>
<path d="M77.4877 267.096L77.3389 266.516H46.3885L46.2397 267.096C48.4717 277.14 54.6246 284.349 61.8637 284.349C69.1029 284.349 75.2483 277.162 77.4877 267.096Z" fill="#CCCCCC" stroke="#1A1A1A" stroke-width="0.939394" stroke-linecap="round" stroke-linejoin="round"/>
<path d="M54.2524 285.116H51.6484V289.944H54.2524V285.116Z" fill="white" stroke="#1A1A1A" stroke-width="0.939394" stroke-linecap="round" stroke-linejoin="round"/>
<path d="M60.1973 285.116H57.5933V289.944H60.1973V285.116Z" fill="white" stroke="#1A1A1A" stroke-width="0.939394" stroke-linecap="round" stroke-linejoin="round"/>
<path d="M66.1416 285.116H63.5376V289.944H66.1416V285.116Z" fill="white" stroke="#1A1A1A" stroke-width="0.939394" stroke-linecap="round" stroke-linejoin="round"/>
<path d="M72.0859 285.116H69.4819V289.944H72.0859V285.116Z" fill="white" stroke="#1A1A1A" stroke-width="0.939394" stroke-linecap="round" stroke-linejoin="round"/>
<path d="M162.192 71.4984C162.192 71.4984 146.248 76.8924 142.432 86.5495C138.615 96.2066 148.272 102.493 150.965 104.063C153.659 105.633 155.682 113.735 153.435 124.047C151.188 134.359 144.455 138.183 139.738 137.752C135.021 137.32 134.121 136.851 134.121 136.851C134.121 136.851 134.798 148.979 146.702 154.365C158.606 159.752 163.792 157.728 163.792 157.728C163.792 157.728 184.222 164.015 194.556 162.192C204.89 160.369 209.808 157.289 209.808 157.289C209.808 157.289 215.425 159.759 223.513 155.489C231.6 151.218 234.516 144.708 234.516 144.708C234.516 144.708 222.836 144.485 225.529 132.358C228.222 120.23 228.899 96.8762 215.857 82.7254C202.815 68.5745 177.935 61.1717 162.192 71.4984Z" fill="#1A1A1A"/>
<mask id="mask0_406_2211" style="mask-type:luminance" maskUnits="userSpaceOnUse" x="134" y="66" width="101" height="97">
<path d="M162.192 71.4984C162.192 71.4984 146.248 76.8924 142.432 86.5495C138.615 96.2066 148.272 102.493 150.965 104.063C153.659 105.633 155.682 113.735 153.435 124.047C151.188 134.359 144.455 138.183 139.738 137.752C135.021 137.32 134.121 136.851 134.121 136.851C134.121 136.851 134.798 148.979 146.702 154.365C158.606 159.752 163.792 157.728 163.792 157.728C163.792 157.728 184.222 164.015 194.556 162.192C204.89 160.369 209.808 157.289 209.808 157.289C209.808 157.289 215.425 159.759 223.513 155.489C231.6 151.218 234.516 144.708 234.516 144.708C234.516 144.708 222.836 144.485 225.529 132.358C228.222 120.23 228.899 96.8762 215.857 82.7254C202.815 68.5745 177.935 61.1717 162.192 71.4984Z" fill="white"/>
</mask>
<g mask="url(#mask0_406_2211)">
<path d="M178.344 77.1379C178.344 77.1379 185.04 100.291 199.176 108.006C213.312 115.722 222.984 125.118 222.984 133.503C222.984 141.888 223.319 154.648 238.75 149.276" stroke="#666666" stroke-width="0.939394" stroke-linecap="round" stroke-linejoin="round"/>
<path d="M182.704 72.101C182.704 72.101 201.498 77.8075 210.887 91.5641C220.276 105.321 217.248 112.032 220.968 119.784C224.688 127.536 230.03 127.507 230.03 127.507" stroke="#666666" stroke-width="0.939394" stroke-linecap="round" stroke-linejoin="round"/>
<path d="M180.695 74.4521C180.695 74.4521 196.795 82.5022 202.837 94.5848" stroke="#666666" stroke-width="0.939394" stroke-linecap="round" stroke-linejoin="round"/>
<path d="M172.608 82.5022C172.608 82.5022 171.269 71.7663 182.339 70.4271" stroke="#666666" stroke-width="0.939394" stroke-linecap="round" stroke-linejoin="round"/>
<path d="M150.496 100.961C150.496 100.961 139.761 95.9239 145.794 87.8739C151.828 79.8238 170.287 80.4934 170.287 80.4934" stroke="#666666" stroke-width="0.939394" stroke-linecap="round" stroke-linejoin="round"/>
<path d="M168.278 87.5391C168.278 87.5391 150.161 93.2455 149.827 94.5847C149.492 95.9239 151.835 95.9239 151.835 95.9239" stroke="#666666" stroke-width="0.939394" stroke-linecap="round" stroke-linejoin="round"/>
<path d="M174.989 73.7825C174.989 73.7825 172.638 70.7619 162.572 72.7781" stroke="#666666" stroke-width="0.939394" stroke-linecap="round" stroke-linejoin="round"/>
<path d="M135.408 148.272C135.408 148.272 152.855 151.992 159.901 130.825" stroke="#666666" stroke-width="0.939394" stroke-linecap="round" stroke-linejoin="round"/>
<path d="M148.146 156.984C148.146 156.984 161.232 156.984 164.588 142.893" stroke="#666666" stroke-width="0.939394" stroke-linecap="round" stroke-linejoin="round"/>
<path d="M206.527 134.18C206.527 134.18 204.176 159.008 219.919 161.708" stroke="#666666" stroke-width="0.939394" stroke-linecap="round" stroke-linejoin="round"/>
</g>
<path d="M162.192 71.4984C162.192 71.4984 146.248 76.8924 142.432 86.5495C138.615 96.2066 148.272 102.493 150.965 104.063C153.659 105.633 155.682 113.735 153.435 124.047C151.188 134.359 144.455 138.183 139.738 137.752C135.021 137.32 134.121 136.851 134.121 136.851C134.121 136.851 134.798 148.979 146.702 154.365C158.606 159.752 163.792 157.728 163.792 157.728C163.792 157.728 184.222 164.015 194.556 162.192C204.89 160.369 209.808 157.289 209.808 157.289C209.808 157.289 215.425 159.759 223.513 155.489C231.6 151.218 234.516 144.708 234.516 144.708C234.516 144.708 222.836 144.485 225.529 132.358C228.222 120.23 228.899 96.8762 215.857 82.7254C202.815 68.5745 177.935 61.1717 162.192 71.4984Z" stroke="#1A1A1A" stroke-width="0.939394" stroke-linecap="round" stroke-linejoin="round"/>
<path d="M150.325 172.102C150.325 172.102 138.912 171.15 133.213 177.57C127.514 183.991 100.157 227.508 93.9747 236.346C87.792 245.185 87.792 260.839 99.1827 262.982C110.573 265.124 121.503 252.283 126.294 246.331C128.707 243.224 131.329 240.286 134.143 237.537C134.143 237.537 132.001 228.497 138.421 213.989C144.842 199.481 149.365 188.068 151.501 181.886C153.636 175.703 150.325 172.102 150.325 172.102Z" fill="white"/>
<mask id="mask1_406_2211" style="mask-type:luminance" maskUnits="userSpaceOnUse" x="89" y="172" width="64" height="92">
<path d="M150.325 172.102C150.325 172.102 138.912 171.15 133.213 177.57C127.514 183.991 100.157 227.508 93.9747 236.346C87.792 245.185 87.792 260.839 99.1827 262.982C110.573 265.124 121.503 252.283 126.294 246.331C128.707 243.224 131.329 240.286 134.143 237.537C134.143 237.537 132.001 228.497 138.421 213.989C144.842 199.481 149.365 188.068 151.501 181.886C153.636 175.703 150.325 172.102 150.325 172.102Z" fill="white"/>
</mask>
<g mask="url(#mask1_406_2211)">
<path opacity="0.1" d="M141.36 207.241L144.76 184.177C144.76 184.177 119.278 232.746 112.069 242.842C107.724 248.92 100.604 256.911 98.3418 262.729C98.6171 262.803 98.8998 262.878 99.19 262.93C110.61 265.072 121.51 252.231 126.301 246.279C128.714 243.172 131.337 240.234 134.151 237.485C134.151 237.485 132.008 228.445 138.429 213.937C139.46 211.626 140.437 209.394 141.36 207.241Z" fill="#1A1A1A"/>
</g>
<path d="M150.325 172.102C150.325 172.102 138.912 171.15 133.213 177.57C127.514 183.991 100.157 227.508 93.9747 236.346C87.792 245.185 87.792 260.839 99.1827 262.982C110.573 265.124 121.503 252.283 126.294 246.331C128.707 243.224 131.329 240.286 134.143 237.537C134.143 237.537 132.001 228.497 138.421 213.989C144.842 199.481 149.365 188.068 151.501 181.886C153.636 175.703 150.325 172.102 150.325 172.102Z" stroke="#1A1A1A" stroke-width="0.939394" stroke-linecap="round" stroke-linejoin="round"/>
<path d="M166.5 146.419C166.5 146.419 167.928 153.792 166.024 160.927C164.119 168.062 164.833 168.062 160.072 169.959C156.943 171.149 153.657 171.871 150.318 172.102C150.318 172.102 141.524 195.166 134.865 206.11C128.206 217.055 126.301 229.174 128.913 235.357C130.604 239.234 132.861 242.84 135.609 246.056C135.609 246.056 139.411 259.611 137.268 268.376C135.125 277.14 129.902 289.781 127.76 308.805C125.617 327.829 126.807 349.464 126.807 349.464H251.636C251.636 349.464 251.398 325.448 248.779 305.71C246.16 285.971 243.072 284.349 238.824 272.453C234.576 260.556 234.062 260.088 234.062 251.77C234.062 243.452 236.443 221.087 235.729 206.11C235.015 191.134 231.451 179.475 225.268 175.19C219.086 170.904 204.34 169.238 198.871 165.443C193.403 161.649 196.728 137.38 196.728 137.38C196.728 137.38 187.458 143.332 179.847 145.467C175.522 146.763 170.965 147.089 166.5 146.419Z" fill="white"/>
<mask id="mask2_406_2211" style="mask-type:luminance" maskUnits="userSpaceOnUse" x="126" y="137" width="126" height="213">
<path d="M166.5 146.419C166.5 146.419 167.928 153.792 166.024 160.927C164.119 168.062 164.833 168.062 160.072 169.959C156.943 171.149 153.657 171.871 150.318 172.102C150.318 172.102 141.524 195.166 134.865 206.11C128.206 217.055 126.301 229.174 128.913 235.357C130.604 239.234 132.861 242.84 135.609 246.056C135.609 246.056 139.411 259.611 137.268 268.376C135.125 277.14 129.902 289.781 127.76 308.805C125.617 327.829 126.807 349.464 126.807 349.464H251.636C251.636 349.464 251.398 325.448 248.779 305.71C246.16 285.971 243.072 284.349 238.824 272.453C234.576 260.556 234.062 260.088 234.062 251.77C234.062 243.452 236.443 221.087 235.729 206.11C235.015 191.134 231.451 179.475 225.268 175.19C219.086 170.904 204.34 169.238 198.871 165.443C193.403 161.649 196.728 137.38 196.728 137.38C196.728 137.38 187.458 143.332 179.847 145.467C175.522 146.763 170.965 147.089 166.5 146.419Z" fill="white"/>
</mask>
<g mask="url(#mask2_406_2211)">
<path opacity="0.1" d="M188.976 167.4C197.026 171.998 208.439 174.141 219.807 172.608C212.739 170.041 203.023 168.382 198.812 165.451C193.343 161.649 196.669 137.387 196.669 137.387C192.534 139.986 188.191 142.241 183.686 144.128L184.162 151.025C184.162 151.025 178.91 161.597 188.976 167.4Z" fill="#1A1A1A"/>
<path opacity="0.1" d="M222.181 214.004C222.181 214.004 219.778 231.793 224.1 235.163C228.423 238.534 230.833 237.083 230.833 226.027C230.833 214.971 223.141 211.601 222.181 214.004Z" fill="#1A1A1A"/>
</g>
<path d="M166.5 146.419C166.5 146.419 167.928 153.792 166.024 160.927C164.119 168.062 164.833 168.062 160.072 169.959C156.943 171.149 153.657 171.871 150.318 172.102C150.318 172.102 141.524 195.166 134.865 206.11C128.206 217.055 126.301 229.174 128.913 235.357C130.604 239.234 132.861 242.84 135.609 246.056C135.609 246.056 139.411 259.611 137.268 268.376C135.125 277.14 129.902 289.781 127.76 308.805C125.617 327.829 126.807 349.464 126.807 349.464H251.636C251.636 349.464 251.398 325.448 248.779 305.71C246.16 285.971 243.072 284.349 238.824 272.453C234.576 260.556 234.062 260.088 234.062 251.77C234.062 243.452 236.443 221.087 235.729 206.11C235.015 191.134 231.451 179.475 225.268 175.19C219.086 170.904 204.34 169.238 198.871 165.443C193.403 161.649 196.728 137.38 196.728 137.38C196.728 137.38 187.458 143.332 179.847 145.467C175.522 146.763 170.965 147.089 166.5 146.419Z" stroke="#1A1A1A" stroke-width="0.939394" stroke-linecap="round" stroke-linejoin="round"/>
<path d="M166.865 156.061C171.31 158.031 176.345 158.21 180.919 156.56C184.066 155.451 191.662 150.02 195.836 146.933C196.111 141.68 196.699 137.38 196.699 137.38C196.699 137.38 187.429 143.332 179.818 145.467C175.502 146.759 170.955 147.084 166.5 146.419C167.025 149.605 167.148 152.845 166.865 156.061Z" fill="#1A1A1A" stroke="#1A1A1A" stroke-width="0.939394" stroke-linecap="round" stroke-linejoin="round"/>
<path d="M248.779 305.784C247.723 297.823 246.592 292.809 245.334 288.873C195.486 306.632 149.686 298.545 130.312 293.538C129.175 298.601 128.316 303.722 127.738 308.879C125.595 327.903 126.785 349.539 126.785 349.539H251.636C251.636 349.539 251.398 325.485 248.779 305.784Z" fill="#1A1A1A" stroke="#1A1A1A" stroke-width="0.939394" stroke-linecap="round" stroke-linejoin="round"/>
<path d="M190.1 347.031C190.1 347.031 200.836 322.777 219.86 313.075" stroke="#666666" stroke-width="0.939394" stroke-linecap="round" stroke-linejoin="round"/>
<path d="M186.291 343.564C188.23 336.04 192.044 329.129 197.376 323.476" stroke="#666666" stroke-width="0.939394" stroke-linecap="round" stroke-linejoin="round"/>
<path d="M141.249 312.041C141.249 312.041 147.483 324.853 159.261 332.129" stroke="#666666" stroke-width="0.939394" stroke-linecap="round" stroke-linejoin="round"/>
<path d="M234.033 251.77C234.033 247.759 234.583 240.505 235.074 232.426C230.521 232.597 223.959 232.039 219.056 228.252C210.731 221.831 206.453 209.466 207.636 196.148C208.454 187.034 211.72 176.469 213.699 170.711C211.862 170.19 209.644 169.632 207.866 169.119C206.832 172.928 205.404 179.111 202.881 186.402C198.603 198.767 190.977 214.934 175.532 215.172C160.087 215.41 147.952 210.626 151.032 197.071C153.264 187.243 156.143 176.172 157.55 170.822C155.19 171.501 152.767 171.929 150.318 172.102C150.318 172.102 141.524 195.166 134.865 206.11C128.206 217.055 126.302 229.174 128.913 235.357C130.605 239.234 132.861 242.84 135.609 246.056C135.609 246.056 139.411 259.611 137.268 268.376C135.445 275.89 131.368 286.232 128.883 300.881C135.334 304.423 150.177 310.553 177.243 311.892C207.97 313.38 237.507 304.795 248.176 301.246C245.699 285.622 242.767 283.338 238.839 272.416C234.509 260.564 234.033 260.088 234.033 251.77Z" fill="#B3E5C7"/>
<mask id="mask3_406_2211" style="mask-type:luminance" maskUnits="userSpaceOnUse" x="127" y="169" width="122" height="144">
<path d="M234.033 251.77C234.033 247.759 234.583 240.505 235.074 232.426C230.521 232.597 223.959 232.039 219.056 228.252C210.731 221.831 206.453 209.466 207.636 196.148C208.454 187.034 211.72 176.469 213.699 170.711C211.862 170.19 209.644 169.632 207.866 169.119C206.832 172.928 205.404 179.111 202.881 186.402C198.603 198.767 190.977 214.934 175.532 215.172C160.087 215.41 147.952 210.626 151.032 197.071C153.264 187.243 156.143 176.172 157.55 170.822C155.19 171.501 152.767 171.929 150.318 172.102C150.318 172.102 141.524 195.166 134.865 206.11C128.206 217.055 126.302 229.174 128.913 235.357C130.605 239.234 132.861 242.84 135.609 246.056C135.609 246.056 139.411 259.611 137.268 268.376C135.445 275.89 131.368 286.232 128.883 300.881C135.334 304.423 150.177 310.553 177.243 311.892C207.97 313.38 237.507 304.795 248.176 301.246C245.699 285.622 242.767 283.338 238.839 272.416C234.509 260.564 234.033 260.088 234.033 251.77Z" fill="white"/>
</mask>
<g mask="url(#mask3_406_2211)">
<path opacity="0.1" d="M204.98 310.866C219.643 309.095 234.097 305.886 248.132 301.283C245.654 285.659 242.723 283.375 238.794 272.453C234.509 260.549 234.033 260.088 234.033 251.77C234.033 247.759 234.583 240.505 235.074 232.426C230.521 232.597 223.959 232.039 219.056 228.252C212.479 223.185 208.447 214.399 207.613 204.377C202.532 214.354 192.399 231.808 181.291 237.366C165.414 245.304 155.496 240.84 142.104 235.379C132.432 231.436 129.456 232.158 128.973 235.491C130.647 239.327 132.876 242.896 135.587 246.085C135.587 246.085 136.331 248.875 137.015 252.729C140.386 255.452 145.065 258.235 151.531 261.174C167.899 268.614 195.174 273.078 209.563 281.507C223.952 289.937 212.539 298.374 205.59 308.79C205.199 309.412 204.988 310.131 204.98 310.866Z" fill="#1A1A1A"/>
</g>
<path d="M234.033 251.77C234.033 247.759 234.583 240.505 235.074 232.426C230.521 232.597 223.959 232.039 219.056 228.252C210.731 221.831 206.453 209.466 207.636 196.148C208.454 187.034 211.72 176.469 213.699 170.711C211.862 170.19 209.644 169.632 207.866 169.119C206.832 172.928 205.404 179.111 202.881 186.402C198.603 198.767 190.977 214.934 175.532 215.172C160.087 215.41 147.952 210.626 151.032 197.071C153.264 187.242 156.143 176.172 157.55 170.822C155.19 171.501 152.767 171.929 150.318 172.102C150.318 172.102 141.524 195.166 134.865 206.11C128.206 217.055 126.302 229.174 128.913 235.357C130.605 239.234 132.861 242.84 135.609 246.056C135.609 246.056 139.411 259.611 137.268 268.376C135.445 275.89 131.368 286.232 128.883 300.881C135.334 304.423 150.177 310.553 177.243 311.892C207.97 313.38 237.507 304.795 248.176 301.246C245.699 285.622 242.767 283.338 238.839 272.416C234.509 260.564 234.033 260.088 234.033 251.77Z" stroke="#1A1A1A" stroke-width="0.939394" stroke-linecap="round" stroke-linejoin="round"/>
<path d="M140.378 248.042C140.378 248.042 145.43 250.453 153.77 250.453" stroke="#1A1A1A" stroke-width="0.939394" stroke-linecap="round" stroke-linejoin="round"/>
<path d="M104.74 163.777C104.74 163.777 104.316 160.339 103.996 154.893C103.677 149.447 103.252 145.154 105.864 144.582C108.475 144.009 109.443 146.583 109.443 149.596C109.443 152.609 110.878 159.194 112.419 163.635C113.959 168.077 115.573 170.517 113.163 171.663C110.752 172.809 105.462 168.077 104.74 163.777Z" fill="white" stroke="#1A1A1A" stroke-width="0.939394" stroke-linecap="round" stroke-linejoin="round"/>
<path d="M155.496 156.471C155.496 156.471 150.883 159.216 150.288 163.063C149.693 166.909 151.865 169.654 157.884 168.94C163.903 168.226 163.613 164.476 163.613 164.476L155.496 156.471Z" fill="#B3E5C7" stroke="#1A1A1A" stroke-width="0.939394" stroke-linecap="round" stroke-linejoin="round"/>
<path d="M158.413 160.704C158.413 160.704 154.641 162.497 153.562 164.476C152.483 166.455 150.869 168.07 154.641 166.812C158.413 165.555 159.856 160.548 158.413 160.704Z" fill="white" stroke="#1A1A1A" stroke-width="0.939394" stroke-linecap="round" stroke-linejoin="round"/>
<path d="M151.419 163.68C147 164.751 144.597 163.412 142.186 163.948C141.661 164.069 141.13 164.159 140.594 164.216C137.172 163.033 134.359 161.039 131.339 158.874C130.178 158.04 128.973 157.177 127.693 156.337C120.067 151.3 107.605 148.049 107.099 147.915C106.89 147.863 106.669 147.896 106.484 148.007C106.299 148.117 106.165 148.296 106.111 148.505C106.057 148.713 106.088 148.935 106.196 149.121C106.304 149.307 106.482 149.443 106.69 149.499C106.816 149.499 119.397 152.81 126.778 157.683C128.028 158.509 129.226 159.365 130.371 160.191C136.204 164.364 144.47 168.925 151.851 166.552C152.017 166.525 152.171 166.447 152.291 166.328C152.412 166.209 152.492 166.056 152.52 165.89C153.659 164.424 151.419 163.68 151.419 163.68Z" fill="white" stroke="#1A1A1A" stroke-width="0.939394" stroke-linecap="round" stroke-linejoin="round"/>
<path d="M152.223 164.647C149.992 165.437 147.592 165.622 145.266 165.183" stroke="#1A1A1A" stroke-width="0.939394" stroke-linecap="round" stroke-linejoin="round"/>
<path d="M102.055 164.015C102.055 164.015 98.9597 167.11 99.6739 168.531" stroke="#1A1A1A" stroke-width="0.939394" stroke-linecap="round" stroke-linejoin="round"/>
<path d="M122.76 178.047L119.903 174.721C119.903 174.721 121.957 165.882 122.998 163.301C123.493 162.192 123.869 161.035 124.122 159.848C124.866 158.36 125.253 155.756 124.248 154.752C123.363 153.867 122.262 154.945 122.016 155.221H121.979C122.063 154.951 122.081 154.665 122.033 154.386C121.984 154.108 121.87 153.844 121.7 153.619C121.53 153.393 121.309 153.21 121.055 153.087C120.801 152.963 120.521 152.901 120.238 152.907C117.946 152.758 115.923 154.596 115.923 154.596C115.923 154.596 115.514 152.907 114.226 152.907C112.939 152.907 110.358 155.198 109.353 156.486C109.279 156.582 109.212 156.679 109.137 156.791C106.727 159.075 102.077 164.03 102.077 164.03C102.077 164.03 103.267 159.037 105.403 156.895C107.538 154.752 113.252 150.712 112.299 148.815C111.347 146.918 108.498 148.815 108.498 148.815C108.498 148.815 95.6562 155.704 95.4181 158.561C95.18 161.418 91.8469 173.545 93.0373 174.736C94.2277 175.926 110.149 185.673 110.149 185.673C110.149 185.673 98.4908 208.975 94.2128 219.205C89.9348 229.435 85.6494 239.888 85.1732 249.166C84.6971 258.443 90.3812 265.34 100.157 265.34C109.934 265.34 114.189 258.681 115.618 245.84C117.046 232.998 123.936 194.467 124.412 187.808C124.888 181.149 125.595 181.38 122.76 178.047Z" fill="white"/>
<mask id="mask4_406_2211" style="mask-type:luminance" maskUnits="userSpaceOnUse" x="85" y="147" width="40" height="119">
<path d="M122.76 178.047L119.903 174.721C119.903 174.721 121.957 165.882 122.998 163.301C123.493 162.192 123.869 161.035 124.122 159.848C124.866 158.36 125.253 155.756 124.248 154.752C123.363 153.867 122.262 154.945 122.016 155.221H121.979C122.063 154.951 122.081 154.665 122.033 154.386C121.984 154.108 121.87 153.844 121.7 153.619C121.53 153.393 121.309 153.21 121.055 153.087C120.801 152.963 120.521 152.901 120.238 152.907C117.946 152.758 115.923 154.596 115.923 154.596C115.923 154.596 115.514 152.907 114.226 152.907C112.939 152.907 110.358 155.198 109.353 156.486C109.279 156.582 109.212 156.679 109.137 156.791C106.727 159.075 102.077 164.03 102.077 164.03C102.077 164.03 103.267 159.037 105.403 156.895C107.538 154.752 113.252 150.712 112.299 148.815C111.347 146.918 108.498 148.815 108.498 148.815C108.498 148.815 95.6562 155.704 95.4181 158.561C95.18 161.418 91.8469 173.545 93.0373 174.736C94.2277 175.926 110.149 185.673 110.149 185.673C110.149 185.673 98.4908 208.975 94.2128 219.205C89.9348 229.435 85.6494 239.888 85.1732 249.166C84.6971 258.443 90.3812 265.34 100.157 265.34C109.934 265.34 114.189 258.681 115.618 245.84C117.046 232.998 123.936 194.467 124.412 187.808C124.888 181.149 125.595 181.38 122.76 178.047Z" fill="white"/>
</mask>
<g mask="url(#mask4_406_2211)">
<path opacity="0.1" d="M115.61 245.825C117.039 232.984 123.928 194.452 124.404 187.793C124.881 181.134 125.595 181.372 122.745 178.039L119.888 174.714C119.888 174.714 121.942 165.875 122.983 163.293C123.478 162.185 123.855 161.028 124.107 159.841C124.674 158.654 124.906 157.334 124.776 156.024L124.576 156.3C124.576 156.3 116.392 174.089 116.883 177.459C117.262 180.13 99.7037 175.815 92.9854 174.661V174.714C94.1758 175.896 110.097 185.65 110.097 185.65C110.097 185.65 118.281 187.555 116.838 195.248C115.395 202.941 105.99 251.293 99.1531 262.952C98.6931 263.729 98.1653 264.463 97.5758 265.147C98.4142 265.263 99.2591 265.325 100.105 265.333C109.904 265.325 114.182 258.666 115.61 245.825Z" fill="#1A1A1A"/>
</g>
<path d="M122.76 178.047L119.903 174.721C119.903 174.721 121.957 165.882 122.998 163.301C123.493 162.192 123.869 161.035 124.122 159.848C124.866 158.36 125.253 155.756 124.248 154.752C123.363 153.867 122.262 154.945 122.016 155.221H121.979C122.063 154.951 122.081 154.665 122.033 154.386C121.984 154.108 121.87 153.844 121.7 153.619C121.53 153.393 121.309 153.21 121.055 153.087C120.801 152.963 120.521 152.901 120.238 152.907C117.946 152.758 115.923 154.596 115.923 154.596C115.923 154.596 115.514 152.907 114.226 152.907C112.939 152.907 110.358 155.198 109.353 156.486C109.279 156.582 109.212 156.679 109.137 156.791C106.727 159.075 102.077 164.03 102.077 164.03C102.077 164.03 103.267 159.037 105.403 156.895C107.538 154.752 113.252 150.712 112.299 148.815C111.347 146.918 108.498 148.815 108.498 148.815C108.498 148.815 95.6562 155.704 95.4181 158.561C95.18 161.418 91.8469 173.545 93.0373 174.736C94.2277 175.926 110.149 185.673 110.149 185.673C110.149 185.673 98.4908 208.975 94.2128 219.205C89.9348 229.435 85.6494 239.888 85.1732 249.166C84.6971 258.443 90.3812 265.34 100.157 265.34C109.934 265.34 114.189 258.681 115.618 245.84C117.046 232.998 123.936 194.467 124.412 187.808C124.888 181.149 125.595 181.38 122.76 178.047Z" stroke="#1A1A1A" stroke-width="0.939394" stroke-linecap="round" stroke-linejoin="round"/>
<path d="M115.901 154.581C115.901 154.581 110.477 162.348 109.331 164.498C108.577 166.169 108.138 167.965 108.037 169.796" stroke="#1A1A1A" stroke-width="0.939394" stroke-linecap="round" stroke-linejoin="round"/>
<path d="M114.628 171.946C114.835 169.762 115.417 167.63 116.347 165.644C117.783 162.49 121.994 155.228 121.994 155.228" stroke="#1A1A1A" stroke-width="0.939394" stroke-linecap="round" stroke-linejoin="round"/>
<path d="M221.392 208.938C221.392 208.938 231.6 251.405 233.639 259.567C235.677 267.728 242.76 280.793 253.176 278.546C263.592 276.299 264.567 263.361 264.336 251.115C264.105 238.869 256.933 211.542 251.829 198.886C246.726 186.231 239.925 176.886 230.551 174.23C221.177 171.574 215.85 172.392 215.85 172.392" fill="white"/>
<mask id="mask5_406_2211" style="mask-type:luminance" maskUnits="userSpaceOnUse" x="215" y="172" width="50" height="107">
<path d="M221.392 208.938C221.392 208.938 231.6 251.405 233.639 259.567C235.677 267.728 242.76 280.793 253.176 278.546C263.592 276.299 264.567 263.361 264.336 251.115C264.105 238.869 256.933 211.542 251.829 198.886C246.726 186.231 239.925 176.886 230.551 174.23C221.177 171.574 215.85 172.392 215.85 172.392" fill="white"/>
</mask>
<g mask="url(#mask5_406_2211)">
<path opacity="0.1" d="M264.366 251.115C264.165 238.869 256.963 211.542 251.859 198.886C246.755 186.231 239.955 176.886 230.581 174.23C228.048 173.506 225.468 172.964 222.858 172.608C226.816 174.289 239.97 181.536 247.663 205.835C256.799 234.68 262.543 256.315 252.953 266.412C247.923 271.694 243.281 271.969 238.445 270.489C241.927 275.764 246.956 279.885 253.176 278.546C263.584 276.299 264.567 263.376 264.366 251.115Z" fill="#1A1A1A"/>
</g>
<path d="M221.392 208.938C221.392 208.938 231.6 251.405 233.639 259.567C235.677 267.728 242.76 280.793 253.176 278.546C263.592 276.299 264.567 263.361 264.336 251.115C264.105 238.869 256.933 211.542 251.829 198.886C246.726 186.231 239.925 176.886 230.551 174.23C221.177 171.574 215.85 172.392 215.85 172.392" stroke="#1A1A1A" stroke-width="0.939394" stroke-linecap="round" stroke-linejoin="round"/>
<path d="M216.846 203.514L148.279 204.6L157.282 228.296H157.378C159.38 234.248 169.863 238.824 182.503 238.824C194.675 238.824 204.823 234.598 207.368 228.951H207.531L216.846 203.514Z" fill="white" stroke="#1A1A1A" stroke-width="0.939394" stroke-linecap="round" stroke-linejoin="round"/>
<path d="M182.503 214.034C201.475 214.034 216.854 209.324 216.854 203.514C216.854 197.704 201.475 192.994 182.503 192.994C163.532 192.994 148.153 197.704 148.153 203.514C148.153 209.324 163.532 214.034 182.503 214.034Z" fill="white" stroke="#1A1A1A" stroke-width="0.939394" stroke-linecap="round" stroke-linejoin="round"/>
<path d="M182.503 212.204C200.262 212.204 214.659 208.043 214.659 202.911C214.659 197.779 200.262 193.619 182.503 193.619C164.744 193.619 150.348 197.779 150.348 202.911C150.348 208.043 164.744 212.204 182.503 212.204Z" fill="white" stroke="#1A1A1A" stroke-width="0.939394" stroke-linecap="round" stroke-linejoin="round"/>
<mask id="mask6_406_2211" style="mask-type:luminance" maskUnits="userSpaceOnUse" x="148" y="184" width="71" height="28">
<path d="M218.364 184.877H148.696V204.116H151.174C153.324 208.58 166.53 211.988 182.519 211.988C197.629 211.988 210.255 208.93 213.409 204.838L214.153 203.982L217.323 202.398L218.364 184.877Z" fill="white"/>
</mask>
<g mask="url(#mask6_406_2211)">
<path d="M150.868 202.844C150.868 202.844 149.38 197.443 150.459 197.264C151.538 197.086 153.286 199.652 155.02 197.919C156.753 196.185 158.063 193.79 160.451 194.005C162.839 194.221 162.624 196.833 164.171 196.833C165.719 196.833 167.646 194.005 168.516 197.048C169.387 200.091 167.028 204.652 165.473 206.386C163.918 208.119 160.481 207.688 155.704 207.688C150.928 207.688 150.868 202.844 150.868 202.844Z" fill="#B3E5C7" stroke="#1A1A1A" stroke-width="0.939394" stroke-linecap="round" stroke-linejoin="round"/>
<path d="M155.675 207.688L154.172 201.423" stroke="#1A1A1A" stroke-width="0.939394" stroke-linecap="round" stroke-linejoin="round"/>
<path d="M157.944 207.539L158.308 197.286" stroke="#1A1A1A" stroke-width="0.939394" stroke-linecap="round" stroke-linejoin="round"/>
<path d="M176.648 197.465C176.648 197.465 174.669 194.586 176.291 192.607C177.913 190.628 178.627 192.25 181.685 192.607C184.743 192.964 184.386 190.092 187.979 191.171C191.573 192.25 192.696 194.928 193.738 194.928C194.779 194.928 197.153 193.485 199.31 195.672C201.468 197.859 200.925 199.094 202.004 199.094C203.082 199.094 204.704 197.651 205.061 200.173C205.419 202.695 204.317 204.31 202.547 204.31C200.776 204.31 197.51 201.252 194.095 201.609C190.68 201.966 189.415 203.41 186.9 202.866C184.386 202.323 184.2 201.073 183.121 200.709C182.042 200.344 178.657 200.887 177.169 199.965C175.681 199.042 177.347 197.443 177.347 197.443L176.648 197.465Z" fill="#B3E5C7" stroke="#1A1A1A" stroke-width="0.939394" stroke-linecap="round" stroke-linejoin="round"/>
<path d="M185.851 197.844C185.851 197.844 183.872 194.965 185.494 192.986C187.116 191.007 187.83 192.629 190.888 192.986C193.946 193.343 193.589 190.471 197.182 191.55C200.776 192.629 201.862 195.33 202.941 195.33C204.02 195.33 206.356 193.886 208.513 196.074C210.671 198.261 210.135 199.496 211.214 199.496C212.293 199.496 213.907 198.053 214.272 200.575C214.637 203.097 213.528 204.712 211.75 204.712C209.972 204.712 206.713 201.654 203.298 202.011C199.883 202.368 198.626 203.811 196.104 203.268C193.581 202.725 193.41 201.475 192.331 201.111C191.253 200.746 187.867 201.289 186.379 200.367C184.891 199.444 186.558 197.844 186.558 197.844H185.851Z" fill="#B3E5C7" stroke="#1A1A1A" stroke-width="0.939394" stroke-linecap="round" stroke-linejoin="round"/>
<path d="M204.169 196.565L202.547 204.302L205.627 204.816L208.484 198.187" fill="#B3E5C7"/>
<path d="M204.169 196.565L202.547 204.302L205.627 204.816L208.484 198.187" stroke="#1A1A1A" stroke-width="0.939394" stroke-linecap="round" stroke-linejoin="round"/>
<path d="M195.174 194.05L195.531 198.187" stroke="#1A1A1A" stroke-width="0.939394" stroke-linecap="round" stroke-linejoin="round"/>
<path d="M184.743 203.038C184.743 203.038 182.764 200.166 184.386 198.187C186.008 196.208 186.722 197.822 189.78 198.187C192.838 198.551 192.473 195.665 196.074 196.743C199.675 197.822 200.746 200.523 201.825 200.523C202.904 200.523 205.247 199.087 207.405 201.267C209.563 203.447 209.02 204.682 210.098 204.682C211.177 204.682 212.799 203.246 213.156 205.761C213.513 208.275 212.412 209.897 210.641 209.897C208.871 209.897 205.605 206.839 202.19 207.197C198.775 207.554 197.51 208.997 194.995 208.461C192.48 207.926 192.294 206.661 191.216 206.304C190.137 205.947 186.752 206.482 185.264 205.56C183.776 204.637 185.45 203.038 185.45 203.038H184.743Z" fill="#B3E5C7" stroke="#1A1A1A" stroke-width="0.939394" stroke-linecap="round" stroke-linejoin="round"/>
<path d="M185.993 205.18C189.531 205.18 192.399 203.358 192.399 201.111C192.399 198.863 189.531 197.041 185.993 197.041C182.455 197.041 179.587 198.863 179.587 201.111C179.587 203.358 182.455 205.18 185.993 205.18Z" fill="#4D4D4D" stroke="#1A1A1A" stroke-width="0.939394" stroke-linecap="round" stroke-linejoin="round"/>
<path d="M185.852 200.389C185.852 200.389 184.081 198.261 184.602 197.763C185.123 197.264 187.578 197.123 187.875 197.852C188.173 198.581 185.852 200.389 185.852 200.389Z" fill="white"/>
<path d="M185.085 200.679C185.085 200.679 181.365 200.314 181.023 199.756C180.68 199.198 181.982 197.859 183.076 198.135C184.17 198.41 185.085 200.679 185.085 200.679Z" fill="white"/>
<path d="M184.936 201.222C184.936 201.222 182.101 202.814 181.216 202.606C180.331 202.398 179.542 200.925 180.584 200.567C181.625 200.21 184.936 201.222 184.936 201.222Z" fill="white"/>
<path d="M185.494 201.624C185.494 201.624 185.591 204.027 184.75 204.325C183.909 204.622 181.64 204.057 181.878 203.32C182.116 202.584 185.494 201.624 185.494 201.624Z" fill="white"/>
<path d="M186.372 201.624C186.372 201.624 189.348 203.112 189.162 203.715C188.976 204.317 186.841 205.054 186.104 204.459C185.368 203.863 186.372 201.624 186.372 201.624Z" fill="white"/>
<path d="M186.93 201.215C186.93 201.215 190.65 200.739 191.238 201.215C191.826 201.691 191.357 203.201 190.181 203.186C189.006 203.171 186.93 201.215 186.93 201.215Z" fill="white"/>
<path d="M186.744 200.672C186.744 200.672 188.552 198.559 189.49 198.559C190.427 198.559 191.967 199.779 191.186 200.344C190.405 200.91 186.744 200.672 186.744 200.672Z" fill="white"/>
<path d="M204.697 208.781C208.235 208.781 211.103 206.959 211.103 204.712C211.103 202.464 208.235 200.642 204.697 200.642C201.159 200.642 198.291 202.464 198.291 204.712C198.291 206.959 201.159 208.781 204.697 208.781Z" fill="#4D4D4D" stroke="#1A1A1A" stroke-width="0.939394" stroke-linecap="round" stroke-linejoin="round"/>
<path d="M204.556 203.982C204.556 203.982 202.785 201.862 203.306 201.364C203.827 200.865 206.282 200.724 206.579 201.445C206.877 202.167 204.556 203.982 204.556 203.982Z" fill="white"/>
<path d="M203.789 204.273C203.789 204.273 200.069 203.915 199.727 203.35C199.385 202.785 200.687 201.453 201.781 201.728C202.874 202.003 203.789 204.273 203.789 204.273Z" fill="white"/>
<path d="M203.641 204.816C203.641 204.816 200.798 206.408 199.921 206.207C199.043 206.006 198.246 204.518 199.288 204.161C200.33 203.804 203.641 204.816 203.641 204.816Z" fill="white"/>
<path d="M204.198 205.24C204.198 205.24 204.295 207.643 203.454 207.941C202.613 208.238 200.344 207.673 200.582 206.936C200.82 206.2 204.198 205.24 204.198 205.24Z" fill="white"/>
<path d="M205.076 205.24C205.076 205.24 208.052 206.728 207.866 207.323C207.68 207.918 205.545 208.662 204.808 208.067C204.072 207.472 205.076 205.24 205.076 205.24Z" fill="white"/>
<path d="M205.634 204.816C205.634 204.816 209.354 204.34 209.942 204.816C210.53 205.292 210.061 206.81 208.886 206.787C207.71 206.765 205.634 204.816 205.634 204.816Z" fill="white"/>
<path d="M205.478 204.273C205.478 204.273 207.286 202.16 208.223 202.16C209.161 202.16 210.701 203.38 209.92 203.938C209.139 204.496 205.478 204.273 205.478 204.273Z" fill="white"/>
<path d="M180.792 201.765C180.792 201.765 182.354 196.364 181.216 196.185C180.078 196.007 178.24 198.574 176.469 196.84C174.699 195.107 173.352 192.696 170.822 192.927C168.293 193.157 168.59 195.754 166.983 195.754C165.376 195.754 163.36 192.927 162.452 195.97C161.545 199.013 164.037 203.573 165.622 205.307C167.206 207.04 170.83 206.609 175.8 206.609C180.77 206.609 180.792 201.765 180.792 201.765Z" fill="#B3E5C7" stroke="#1A1A1A" stroke-width="0.939394" stroke-linecap="round" stroke-linejoin="round"/>
<path d="M175.8 206.609L177.37 200.344" stroke="#1A1A1A" stroke-width="0.939394" stroke-linecap="round" stroke-linejoin="round"/>
<path d="M173.434 206.46L173.062 196.208" stroke="#1A1A1A" stroke-width="0.939394" stroke-linecap="round" stroke-linejoin="round"/>
<path d="M165.317 209.317C168.855 209.317 171.723 207.495 171.723 205.247C171.723 203 168.855 201.178 165.317 201.178C161.779 201.178 158.911 203 158.911 205.247C158.911 207.495 161.779 209.317 165.317 209.317Z" fill="#4D4D4D" stroke="#1A1A1A" stroke-width="0.939394" stroke-linecap="round" stroke-linejoin="round"/>
<path d="M165.168 204.526C165.168 204.526 163.39 202.398 163.91 201.899C164.431 201.401 166.886 201.259 167.184 201.989C167.482 202.718 165.168 204.526 165.168 204.526Z" fill="white"/>
<path d="M164.424 204.808C164.424 204.808 160.704 204.451 160.362 203.893C160.02 203.335 161.322 201.996 162.415 202.271C163.509 202.547 164.424 204.808 164.424 204.808Z" fill="white"/>
<path d="M164.253 205.344C164.253 205.344 161.418 206.936 160.533 206.728C159.648 206.519 158.859 205.046 159.901 204.689C160.942 204.332 164.253 205.344 164.253 205.344Z" fill="white"/>
<path d="M164.818 205.783C164.818 205.783 164.915 208.186 164.074 208.484C163.234 208.781 160.964 208.216 161.202 207.479C161.441 206.743 164.818 205.783 164.818 205.783Z" fill="white"/>
<path d="M165.689 205.776C165.689 205.776 168.665 207.264 168.479 207.866C168.293 208.469 166.158 209.205 165.429 208.61C164.7 208.015 165.689 205.776 165.689 205.776Z" fill="white"/>
<path d="M166.247 205.344C166.247 205.344 169.967 204.868 170.555 205.344C171.143 205.82 170.681 207.33 169.498 207.316C168.315 207.301 166.247 205.344 166.247 205.344Z" fill="white"/>
<path d="M166.091 204.808C166.091 204.808 167.899 202.695 168.844 202.695C169.788 202.695 171.321 203.915 170.533 204.481C169.744 205.046 166.091 204.808 166.091 204.808Z" fill="white"/>
<path d="M167.579 205.165C167.579 205.165 170.555 200.701 177.905 199.957C177.905 199.957 181.506 201.036 180.063 201.215C178.62 201.393 173.233 200.85 168.903 205.351C164.573 209.853 167.579 205.165 167.579 205.165Z" fill="white" stroke="#1A1A1A" stroke-width="0.939394" stroke-linecap="round" stroke-linejoin="round"/>
<path d="M184.854 206.75C184.854 208.833 181.99 210.53 178.448 210.53C174.907 210.53 172.042 208.833 172.042 206.75C172.042 204.667 174.907 202.978 178.448 202.978C181.99 202.978 184.854 204.667 184.854 206.75Z" fill="#4D4D4D" stroke="#1A1A1A" stroke-width="0.939394" stroke-linecap="round" stroke-linejoin="round"/>
<path d="M178.307 206.088C178.307 206.088 176.529 204.116 177.05 203.655C177.571 203.194 180.026 203.067 180.324 203.737C180.621 204.406 178.307 206.088 178.307 206.088Z" fill="white"/>
<path d="M177.534 206.348C177.534 206.348 173.814 206.014 173.479 205.493C173.144 204.972 174.431 203.737 175.532 204.005C176.633 204.273 177.534 206.348 177.534 206.348Z" fill="white"/>
<path d="M177.385 206.832C177.385 206.832 174.55 208.32 173.665 208.119C172.779 207.918 171.991 206.557 173.025 206.222C174.059 205.887 177.385 206.832 177.385 206.832Z" fill="white"/>
<path d="M177.95 207.249C177.95 207.249 178.047 209.481 177.206 209.748C176.365 210.016 174.104 209.503 174.342 208.818C174.58 208.134 177.95 207.249 177.95 207.249Z" fill="white"/>
<path d="M178.821 207.241C178.821 207.241 181.797 208.632 181.618 209.176C181.44 209.719 179.297 210.418 178.56 209.875C177.824 209.332 178.821 207.241 178.821 207.241Z" fill="white"/>
<path d="M179.378 206.832C179.378 206.832 183.098 206.393 183.694 206.832C184.289 207.271 183.813 208.677 182.63 208.662C181.447 208.647 179.378 206.832 179.378 206.832Z" fill="white"/>
<path d="M179.222 206.341C179.222 206.341 181.038 204.384 181.975 204.392C182.912 204.399 184.452 205.523 183.671 206.043C182.89 206.564 179.222 206.341 179.222 206.341Z" fill="white"/>
<path d="M198.7 206.929C198.7 209.019 195.836 210.708 192.295 210.708C188.753 210.708 185.889 209.019 185.889 206.929C185.889 204.838 188.761 203.157 192.295 203.157C195.829 203.157 198.7 204.846 198.7 206.929Z" fill="#4D4D4D" stroke="#1A1A1A" stroke-width="0.939394" stroke-linecap="round" stroke-linejoin="round"/>
<path d="M192.153 206.259C192.153 206.259 190.375 204.288 190.903 203.834C191.431 203.38 193.879 203.238 194.177 203.908C194.474 204.578 192.153 206.259 192.153 206.259Z" fill="white"/>
<path d="M191.387 206.527C191.387 206.527 187.667 206.2 187.325 205.671C186.982 205.143 188.277 203.916 189.378 204.183C190.479 204.451 191.387 206.527 191.387 206.527Z" fill="white"/>
<path d="M191.208 207.033C191.208 207.033 188.366 208.521 187.488 208.32C186.61 208.119 185.814 206.758 186.855 206.423C187.897 206.088 191.208 207.033 191.208 207.033Z" fill="white"/>
<path d="M191.796 207.427C191.796 207.427 191.893 209.659 191.052 209.927C190.211 210.195 187.949 209.682 188.187 208.997C188.425 208.313 191.796 207.427 191.796 207.427Z" fill="white"/>
<path d="M192.696 207.427C192.696 207.427 195.672 208.811 195.494 209.362C195.315 209.912 193.172 210.597 192.436 210.054C191.699 209.51 192.696 207.427 192.696 207.427Z" fill="white"/>
<path d="M193.225 207.033C193.225 207.033 196.945 206.586 197.54 207.033C198.135 207.479 197.659 208.878 196.483 208.863C195.308 208.848 193.225 207.033 193.225 207.033Z" fill="white"/>
<path d="M193.076 206.527C193.076 206.527 194.884 204.563 195.821 204.57C196.758 204.578 198.299 205.701 197.517 206.222C196.736 206.743 193.076 206.527 193.076 206.527Z" fill="white"/>
<path d="M184.669 201.215C184.669 201.215 182.794 206.229 175.741 208.58C175.741 208.58 172.02 208.335 173.36 207.836C174.699 207.338 180.1 206.653 183.3 201.304C186.499 195.955 184.669 201.215 184.669 201.215Z" fill="white" stroke="#1A1A1A" stroke-width="0.939394" stroke-linecap="round" stroke-linejoin="round"/>
<path d="M201.736 203.112C201.736 203.112 199.861 208.127 192.808 210.478C192.808 210.478 189.088 210.232 190.427 209.734C191.766 209.235 197.168 208.551 200.367 203.209C203.566 197.867 201.736 203.112 201.736 203.112Z" fill="white" stroke="#1A1A1A" stroke-width="0.939394" stroke-linecap="round" stroke-linejoin="round"/>
<path d="M156.724 208.975C156.724 208.975 152.587 206.817 155.831 206.095C159.075 205.374 160.682 209.332 161.404 207.36C162.125 205.389 163.13 204.235 165.414 204.808C167.698 205.381 165.414 207.293 167.802 207.866C170.19 208.439 168.025 204.057 172.355 206.244C176.685 208.432 175.428 211.132 177.772 211.311C180.115 211.489 179.743 206.996 182.801 207.539C185.859 208.082 184.423 208.796 186.402 209.153C188.381 209.51 188.738 207.539 190.717 208.796C192.696 210.054 193.954 211.311 195.033 210.597C196.111 209.882 195.777 208.975 197.733 208.618C199.69 208.26 199.891 207.539 201.327 205.738C202.763 203.938 204.928 206.482 207.085 206.482C209.243 206.482 209.421 206.482 210.5 204.325C210.798 203.709 211.255 203.184 211.824 202.805C212.393 202.425 213.054 202.205 213.737 202.167C213.737 202.167 215.537 203.96 213.201 206.118C210.865 208.275 201.684 213.312 194.497 214.034C187.31 214.756 177.229 215.648 168.42 214.391C159.611 213.134 156.724 208.975 156.724 208.975Z" fill="#B3E5C7" stroke="#1A1A1A" stroke-width="0.939394" stroke-linecap="round" stroke-linejoin="round"/>
<path d="M189.162 203.729C189.162 203.729 192.138 199.265 199.489 198.521C199.489 198.521 203.09 199.6 201.646 199.779C200.203 199.957 194.817 199.422 190.486 203.915C186.156 208.409 189.162 203.729 189.162 203.729Z" fill="white" stroke="#1A1A1A" stroke-width="0.939394" stroke-linecap="round" stroke-linejoin="round"/>
</g>
<path d="M172.824 84.7267C172.824 84.7267 155.824 92.3155 153.48 98.327C151.136 104.339 152.439 110.365 150.34 117.165C148.242 123.965 143.801 127.365 147.201 137.045C150.601 146.724 162.378 150.906 167.088 153.004C171.555 154.998 176.622 155.185 181.224 153.524C185.688 151.955 199.013 141.754 199.013 141.754C199.013 141.754 200.322 143.585 206.073 141.494C211.825 139.403 215.001 128.935 213.402 124.226C211.802 119.516 204.764 122.916 204.764 122.916C204.764 122.916 170.733 102.776 172.824 84.7267Z" fill="white"/>
<mask id="mask7_406_2211" style="mask-type:luminance" maskUnits="userSpaceOnUse" x="145" y="84" width="69" height="71">
<path d="M172.824 84.7267C172.824 84.7267 155.824 92.3155 153.48 98.327C151.136 104.339 152.439 110.365 150.34 117.165C148.242 123.965 143.801 127.365 147.201 137.045C150.601 146.724 162.378 150.906 167.088 153.004C171.555 154.998 176.622 155.185 181.224 153.524C185.688 151.955 199.013 141.754 199.013 141.754C199.013 141.754 200.322 143.585 206.073 141.494C211.825 139.403 215.001 128.935 213.402 124.226C211.802 119.516 204.764 122.916 204.764 122.916C204.764 122.916 170.733 102.776 172.824 84.7267Z" fill="white"/>
</mask>
<g mask="url(#mask7_406_2211)">
<path opacity="0.1" d="M204.734 122.916C198.936 119.355 193.442 115.321 188.307 110.856C189.728 116.116 192.622 128.161 191.885 136.591C190.925 147.647 180.829 151.977 172.177 152.959C171.016 153.085 170.451 153.502 170.332 154.12C173.931 154.991 177.707 154.789 181.194 153.539C185.658 151.969 198.983 141.769 198.983 141.769C198.983 141.769 200.292 143.599 206.044 141.509C211.795 139.418 214.972 128.95 213.372 124.241C211.772 119.531 204.734 122.916 204.734 122.916Z" fill="#1A1A1A"/>
</g>
<path d="M172.824 84.7267C172.824 84.7267 155.824 92.3155 153.48 98.327C151.136 104.339 152.439 110.365 150.34 117.165C148.242 123.965 143.801 127.365 147.201 137.045C150.601 146.724 162.378 150.906 167.088 153.004C171.555 154.998 176.622 155.185 181.224 153.524C185.688 151.955 199.013 141.754 199.013 141.754C199.013 141.754 200.322 143.585 206.073 141.494C211.825 139.403 215.001 128.935 213.402 124.226C211.802 119.516 204.764 122.916 204.764 122.916C204.764 122.916 170.733 102.776 172.824 84.7267Z" stroke="#1A1A1A" stroke-width="0.939394" stroke-linecap="round" stroke-linejoin="round"/>
<path d="M166.024 113.237C165.648 115.169 164.634 116.919 163.145 118.207C160.793 120.037 158.963 121.346 161.314 123.415C163.665 125.483 165.503 124.717 165.503 124.717" stroke="#1A1A1A" stroke-width="0.939394" stroke-linecap="round" stroke-linejoin="round"/>
<path d="M162.884 131.815C162.884 131.815 167.073 134.686 173.084 130.505" stroke="#1A1A1A" stroke-width="0.939394" stroke-linecap="round" stroke-linejoin="round"/>
<path d="M172.564 128.414C172.564 128.414 172.043 129.716 174.394 132.075" stroke="#1A1A1A" stroke-width="0.939394" stroke-linecap="round" stroke-linejoin="round"/>
<path d="M155.035 113.497C156.128 112.763 157.426 112.393 158.742 112.442C160.059 112.49 161.326 112.953 162.363 113.765" stroke="#1A1A1A" stroke-width="0.939394" stroke-linecap="round" stroke-linejoin="round"/>
<path d="M173.352 114.286C173.352 114.286 176.492 111.407 181.201 114.807" stroke="#1A1A1A" stroke-width="0.939394" stroke-linecap="round" stroke-linejoin="round"/>
<path d="M155.295 106.176C155.295 106.176 158.963 101.467 163.665 103.557" stroke="#1A1A1A" stroke-width="2.81818" stroke-linecap="round" stroke-linejoin="round"/>
<path d="M170.733 103.825C170.733 103.825 175.703 100.946 180.152 106.176" stroke="#1A1A1A" stroke-width="2.81818" stroke-linecap="round" stroke-linejoin="round"/>
<path d="M257.729 263.242C255.749 259.896 253.055 257.028 249.841 254.842C246.626 252.656 242.968 251.206 239.129 250.594C225.864 248.362 213.409 247.938 208.915 245.691C204.422 243.444 202.182 238.549 199.727 235.275C196.836 231.743 193.388 228.707 189.519 226.288C186.461 224.45 184.825 225.886 185.435 227.924C186.045 229.963 188.299 231.19 189.899 233.638C190.951 235.335 191.706 237.2 192.131 239.151C192.131 239.151 188.254 239.761 180.286 234.256C172.318 228.75 166.411 224.859 165.592 226.697C165.103 227.712 164.959 228.859 165.183 229.963C165.183 229.963 161.299 227.515 160.719 230.171C160.139 232.827 165.004 238.355 165.004 238.355C165.004 238.355 166.44 240.401 168.68 243.258C171.653 247.335 175.924 250.279 180.792 251.606C187.533 253.644 193.247 255.482 196.922 257.119C200.597 258.756 223.051 275.287 237.552 279.781C252.052 284.275 258.786 278.144 261.434 273.04C263.035 269.817 263.673 266.201 263.272 262.624" fill="white"/>
<mask id="mask8_406_2211" style="mask-type:luminance" maskUnits="userSpaceOnUse" x="160" y="225" width="104" height="57">
<path d="M257.729 263.242C255.749 259.896 253.055 257.028 249.841 254.842C246.626 252.656 242.968 251.206 239.129 250.594C225.864 248.362 213.409 247.938 208.915 245.691C204.422 243.444 202.182 238.549 199.727 235.275C196.836 231.743 193.388 228.707 189.519 226.288C186.461 224.45 184.825 225.886 185.435 227.924C186.045 229.963 188.299 231.19 189.899 233.638C190.951 235.335 191.706 237.2 192.131 239.151C192.131 239.151 188.254 239.761 180.286 234.256C172.318 228.75 166.411 224.859 165.592 226.697C165.103 227.712 164.959 228.859 165.183 229.963C165.183 229.963 161.299 227.515 160.719 230.171C160.139 232.827 165.004 238.355 165.004 238.355C165.004 238.355 166.44 240.401 168.68 243.258C171.653 247.335 175.924 250.279 180.792 251.606C187.533 253.644 193.247 255.482 196.922 257.119C200.597 258.756 223.051 275.287 237.552 279.781C252.052 284.275 258.786 278.144 261.434 273.04C263.035 269.817 263.673 266.201 263.272 262.624" fill="white"/>
</mask>
<g mask="url(#mask8_406_2211)">
<path opacity="0.1" d="M263.242 262.632L257.729 263.242C257.31 262.463 256.833 261.717 256.301 261.01C255.552 263.007 254.414 264.836 252.953 266.389C243.333 276.485 235.007 268.301 224.584 264.47C214.161 260.638 193.336 250.044 182.756 250.527C180.999 250.606 179.238 250.549 177.489 250.356C178.552 250.837 179.645 251.248 180.762 251.584C187.503 253.622 193.217 255.46 196.892 257.097C200.568 258.733 223.022 275.265 237.522 279.759C252.023 284.253 258.756 278.122 261.405 273.018C263 269.804 263.638 266.199 263.242 262.632Z" fill="#1A1A1A"/>
</g>
<path d="M257.729 263.242C255.749 259.896 253.055 257.028 249.841 254.842C246.626 252.656 242.968 251.206 239.129 250.594C225.864 248.362 213.409 247.938 208.915 245.691C204.422 243.444 202.182 238.549 199.727 235.275C196.836 231.743 193.388 228.707 189.519 226.288C186.461 224.45 184.825 225.886 185.435 227.924C186.045 229.963 188.299 231.19 189.899 233.638C190.951 235.335 191.706 237.2 192.131 239.151C192.131 239.151 188.254 239.761 180.286 234.256C172.318 228.75 166.411 224.859 165.592 226.697C165.103 227.712 164.959 228.859 165.183 229.963C165.183 229.963 161.299 227.515 160.719 230.171C160.139 232.827 165.004 238.355 165.004 238.355C165.004 238.355 166.44 240.401 168.68 243.258C171.653 247.335 175.924 250.279 180.792 251.606C187.533 253.644 193.247 255.482 196.922 257.119C200.597 258.756 223.051 275.287 237.552 279.781C252.052 284.275 258.786 278.144 261.434 273.04C263.035 269.817 263.673 266.201 263.272 262.624" stroke="#1A1A1A" stroke-width="0.939394" stroke-linecap="round" stroke-linejoin="round"/>
<path d="M165.25 229.963C165.25 229.963 173.955 237.291 175.934 239.047C177.384 240.24 179.011 241.201 180.755 241.897" stroke="#1A1A1A" stroke-width="0.939394" stroke-linecap="round" stroke-linejoin="round"/>
<path d="M162.542 233.78C162.542 233.78 170.882 243.452 176.373 245.847" stroke="#1A1A1A" stroke-width="0.939394" stroke-linecap="round" stroke-linejoin="round"/>
</svg>
